<?xml version="1.0" encoding="UTF-8"?>
<svg width="98px" height="96px" viewBox="0 0 98 96" version="1.1" xmlns="http://www.w3.org/2000/svg" xmlns:xlink="http://www.w3.org/1999/xlink">
    <title>github-logo</title>
    <g stroke="none" stroke-width="1" fill="none" fill-rule="evenodd">
        <g fill="#FFFFFF" fill-rule="nonzero">
            <path d="M48.854,0 C21.839,0 0,22 0,49.217 C0,70.973 13.993,89.389 33.405,95.904 C35.832,96.393 36.721,94.9 36.721,93.6 C36.721,92.4 36.641,88.7 36.641,84.5 C23.051,87.4 20.145,78.6 20.145,78.6 C17.897,72.9 14.731,71.4 14.731,71.4 C10.326,68.4 15.051,68.4 15.051,68.4 C19.936,68.7 22.504,73.4 22.504,73.4 C26.829,80.9 33.805,78.8 36.881,77.5 C37.281,74.3 38.57,72.2 39.938,71 C29.101,69.8 17.736,65.6 17.736,46.7 C17.736,41.3 19.666,36.9 22.584,33.5 C22.104,32.3 20.414,27.2 23.052,20.4 C23.052,20.4 27.137,19.1 36.721,25.5 C40.606,24.4 44.731,23.9 48.854,23.9 C52.979,23.9 57.104,24.4 60.988,25.5 C70.572,19.1 74.657,20.4 74.657,20.4 C77.295,27.2 75.605,32.3 75.125,33.5 C78.043,36.9 79.973,41.3 79.973,46.7 C79.973,65.6 68.608,69.8 57.771,71 C59.539,72.5 61.066,75.4 61.066,79.9 C61.066,86.2 60.986,91.9 60.986,93.6 C60.986,94.9 61.876,96.393 64.303,95.904 C83.715,89.389 97.708,70.973 97.708,49.217 C97.708,22 75.869,0 48.854,0 Z"></path>
        </g>
    </g>
</svg>
